<svg width="335" height="335" xmlns="http://www.w3.org/2000/svg" xmlns:xlink="http://www.w3.org/1999/xlink" overflow="hidden"><defs><clipPath id="clip0"><rect x="3327" y="957" width="335" height="335"/></clipPath></defs><g clip-path="url(#clip0)" transform="translate(-3327 -957)"><path d="M3448.22 1031.37C3443.75 1031.03 3439.28 1033.78 3437.91 1038.25L3412.81 1113.53 3358.5 1113.53 3358.5 1134.16 3420.38 1134.16C3424.84 1134.16 3428.62 1131.41 3430 1127.28L3444.78 1082.59 3468.5 1208.41C3469.53 1212.87 3473.31 1216.31 3477.78 1216.66L3478.81 1216.66C3482.94 1216.66 3487.06 1213.91 3488.44 1210.12L3525.56 1111.47 3541.03 1164.41C3542.06 1168.19 3544.81 1170.94 3548.59 1171.62 3552.38 1172.31 3556.16 1171.28 3558.56 1168.53L3589.84 1134.16 3633.5 1134.16 3633.5 1113.53 3585.38 1113.53C3582.62 1113.53 3579.88 1114.91 3577.81 1116.97L3555.81 1141.03 3536.22 1076.75C3534.84 1072.28 3531.06 1069.53 3526.59 1069.19 3522.12 1068.84 3518.34 1071.59 3516.62 1075.72L3481.56 1168.53 3457.5 1039.62C3456.81 1035.16 3452.69 1031.72 3448.22 1031.37ZM3496 959C3587.13 959 3661 1032.87 3661 1124 3661 1215.13 3587.13 1289 3496 1289 3404.87 1289 3331 1215.13 3331 1124 3331 1032.87 3404.87 959 3496 959Z" fill="#00B050" fill-rule="evenodd" fill-opacity="1"/></g></svg>