<svg t="1664261472006" class="icon" viewBox="0 0 1024 1024" version="1.1" xmlns="http://www.w3.org/2000/svg" p-id="5669" width="200" height="200"><path d="M446.08203125 90.125h131.8359375c21.91772461 0 39.55078125 17.63305664 39.55078126 39.55078125v276.85546874h144.52514647c29.33349609 0 44.00024414 35.4309082 23.23608399 56.19506837L534.5769043 713.54418945c-12.35961914 12.35961914-32.62939453 12.35961914-44.98901367 0L238.60522461 462.72631836c-20.76416016-20.76416016-6.09741211-56.19506836 23.23608398-56.19506837H406.53124999V129.67578125c0-21.91772461 17.63305664-39.55078125 39.55078126-39.55078125z m487.79296875 619.62890625v184.5703125c0 21.91772461-17.63305664 39.55078125-39.55078125 39.55078125H129.67578125c-21.91772461 0-39.55078125-17.63305664-39.55078125-39.55078125V709.75390625c0-21.91772461 17.63305664-39.55078125 39.55078125-39.55078125h241.75415039l80.74951172 80.74951173c33.1237793 33.1237793 86.51733398 33.1237793 119.64111328 0l80.74951172-80.74951173H894.32421875c21.91772461 0 39.55078125 17.63305664 39.55078125 39.55078125z m-204.34570313 145.01953125c0-18.12744141-14.83154297-32.95898438-32.95898437-32.95898438s-32.95898438 14.83154297-32.95898437 32.95898438 14.83154297 32.95898438 32.95898437 32.95898438 32.95898438-14.83154297 32.95898437-32.95898438z m105.46875001 0c0-18.12744141-14.83154297-32.95898438-32.95898438-32.95898438s-32.95898438 14.83154297-32.95898437 32.95898438 14.83154297 32.95898438 32.95898437 32.95898438 32.95898438-14.83154297 32.95898438-32.95898438z" fill="#506b84" p-id="5670"></path></svg>