<svg width="680" height="100" xmlns="http://www.w3.org/2000/svg">
 <g>
  <title>background</title>
  <rect fill="none" id="canvas_background" height="102.00001" width="682" y="-1" x="-1"/>
 </g>
 <g>
  <title>Layer 1</title>
  <g id="G" fill="#333">
   <path d="m35,50a7.5,7.5 0 0 0 7.5,7.5l77.5,0l0,35a7.5,7.5 0 0 0 7.5,7.5a7.5,7.5 0 0 0 7.5,-7.5l0,-42.5a7.5,7.5 0 0 0 -7.5,-7.5l-85,0a7.5,7.5 0 0 0 -7.5,7.5z"/>
   <path d="m135,7.5a7.5,7.5 0 0 0 -7.5,-7.5l-97.5,0a30,30 0 0 0 -30,30l0,40a30,30 0 0 0 30,30l62.5,0a7.5,7.5 0 0 0 7.5,-7.5a7.5,7.5 0 0 0 -7.5,-7.5l-62.5,0a15,15 0 0 1 -15,-15l0,-40a15,15 0 0 1 15,-15l97.5,0a7.5,7.5 0 0 0 7.5,-7.5z"/>
  </g>
  <g id="A" fill="#333">
   <path d="m210.00533,0a7.49,7.49 0 0 1 6,3.06l62.5,85a7.45,7.45 0 0 1 1.5,4.44a7.5,7.5 0 0 1 -7.5,7.5a7.47,7.47 0 0 1 -6,-3.06l-62.5,-85a7.47,7.47 0 0 1 -1.5,-4.44a7.5,7.5 0 0 1 7.5,-7.5zm-2.81,55l-37.63,0a7.49,7.49 0 0 0 -6,3.06l-21.97,29.82a7.86,7.86 0 0 0 -1.53,3.63a7.5,7.5 0 0 0 8.44,8.42a7.73,7.73 0 0 0 5.17,-3.16l19.68,-26.77l34.15,0a7.5,7.5 0 0 0 7.5,-7.73a7.71,7.71 0 0 0 -7.81,-7.27z"/>
  </g>
  <g id="N" fill="#333">
   <path d="m292.5,0a7.5,7.5 0 0 0 -7.5,7.5l0,85a7.5,7.5 0 0 0 7.5,7.5a7.5,7.5 0 0 0 7.5,-7.5l0,-69.73l97.92,75.67a7.5,7.5 0 0 0 4.58,1.56a7.5,7.5 0 0 0 7.5,-7.5a7.53,7.53 0 0 0 -2.91,-5.94l-110,-85a7.5,7.5 0 0 0 -4.59,-1.56zm117.5,48.27l0,-40.77a7.5,7.5 0 0 0 -7.5,-7.5a7.5,7.5 0 0 0 -7.5,7.5l0,40.77a7.51,7.51 0 0 0 2.91,5.93a7.5,7.5 0 0 0 12.09,-5.93z"/>
  </g>
  <g id="T1" fill="#333">
   <path d="m537.49997,0l-115,0a7.5,7.5 0 0 0 0,15l115,0a7.5,7.5 0 0 0 0,-15zm-57.5,35a7.5,7.5 0 0 0 -7.5,7.5l0,50a7.5,7.5 0 0 0 15,0l0,-50a7.5,7.5 0 0 0 -7.5,-7.5z"/>
  </g>
  <g id="T2" fill="#333">
   <path d="m672.5,0l-115,0a7.5,7.5 0 0 0 0,15l115,0a7.5,7.5 0 0 0 0,-15zm-57.5,35a7.5,7.5 0 0 0 -7.5,7.5l0,50a7.5,7.5 0 0 0 15,0l0,-50a7.5,7.5 0 0 0 -7.5,-7.5z"/>
  </g>
 </g>
</svg>