<svg width="3011" height="784" xmlns="http://www.w3.org/2000/svg" xmlns:xlink="http://www.w3.org/1999/xlink" overflow="hidden"><defs><clipPath id="clip0"><rect x="330" y="1067" width="3011" height="784"/></clipPath></defs><g clip-path="url(#clip0)" transform="translate(-330 -1067)"><path d="M889.271 1718.71C883.114 1718.71 878.123 1723.7 878.123 1729.85L878.123 1790.04C878.123 1796.19 883.114 1801.18 889.271 1801.18L1118.94 1801.18C1125.1 1801.18 1130.09 1796.19 1130.09 1790.04L1130.09 1729.85C1130.09 1723.7 1125.1 1718.71 1118.94 1718.71ZM2209.87 1628.47C2201.82 1638.94 2183.55 1651.69 2155.08 1666.72 2126.88 1681.22 2106.6 1695.04 2094.24 1708.19 2081.88 1721.62 2075.71 1737.72 2075.71 1756.51 2075.71 1773.42 2080.74 1787.79 2090.82 1799.6 2100.89 1811.41 2113.45 1817.31 2128.49 1817.31 2144.07 1817.31 2158.7 1812.55 2172.4 1803.02 2186.1 1793.49 2196.24 1781.34 2202.82 1766.58 2209.4 1751.82 2212.69 1729.94 2212.69 1700.95 2212.69 1679.2 2211.75 1655.04 2209.87 1628.47ZM2464.91 1492.37C2471.36 1508.21 2475.25 1534.92 2476.6 1572.5 2493.25 1546.19 2511.72 1526.46 2532 1513.31 2552.27 1500.15 2574.37 1493.58 2598.27 1493.58 2616.54 1493.58 2634.2 1497 2651.25 1503.83 2668.31 1510.67 2681.47 1522.47 2690.74 1539.22 2700.01 1555.98 2704.64 1584.46 2704.64 1624.68L2702.22 1760.21C2702.22 1785.15 2704.3 1800.77 2708.47 1807.07 2712.63 1813.36 2721.56 1818.39 2735.26 1822.15 2744.66 1824.83 2749.36 1827.78 2749.36 1831 2749.36 1835.03 2747.08 1837.04 2742.51 1837.04 2740.63 1837.04 2738.75 1836.92 2736.87 1836.68 2724.52 1834.24 2706.25 1833.02 2682.08 1833.02 2660.32 1833.02 2636.95 1833.96 2611.97 1835.84 2602.03 1835.84 2597.06 1833.55 2597.06 1828.99 2597.06 1825.77 2599.75 1823.62 2605.12 1822.55 2619.9 1819.33 2629.57 1815.98 2634.13 1812.49 2638.7 1809.01 2641.92 1804.38 2643.8 1798.62 2645.68 1792.86 2647.23 1773.49 2648.43 1740.52 2649.64 1707.54 2650.25 1680.73 2650.25 1660.09 2650.25 1603.52 2643.13 1565.86 2628.89 1547.09 2614.66 1528.33 2596.93 1518.94 2575.71 1518.94 2544.28 1518.94 2518.16 1535.92 2497.35 1569.88 2476.53 1603.84 2466.12 1660.41 2466.12 1739.6 2466.12 1775.57 2468.47 1798.46 2473.17 1808.25 2477.87 1818.05 2489.62 1824.02 2508.43 1826.17 2514.33 1826.71 2517.29 1829.26 2517.29 1833.82 2517.29 1837.58 2514.34 1839.46 2508.45 1839.46L2487.55 1837.85C2480.05 1837.31 2455.27 1837.04 2413.21 1837.04L2381.06 1837.85C2369.27 1837.85 2363.38 1835.7 2363.38 1831.41 2363.38 1826.84 2369.78 1823.35 2382.58 1820.94 2394.84 1818.52 2403.11 1814.28 2407.38 1808.24 2411.64 1802.19 2414.51 1782.1 2415.97 1747.96 2417.44 1713.82 2418.18 1671.22 2418.18 1620.16 2418.18 1572.58 2414.95 1543.01 2408.51 1531.46 2402.06 1519.9 2393.06 1512.77 2381.51 1510.09 2371.04 1507.67 2365.8 1504.31 2365.8 1500.02 2365.8 1495.46 2369.83 1493.17 2377.88 1493.17L2410.52 1493.58C2414.01 1493.58 2432.14 1493.17 2464.91 1492.37ZM2153.06 1491.97C2183.95 1491.97 2208.6 1496.33 2227 1505.07 2245.4 1513.8 2256.95 1523.82 2261.65 1535.1 2266.35 1546.39 2268.7 1568.16 2268.7 1600.41L2266.28 1706.85C2266.28 1747.97 2268.76 1777.2 2273.73 1794.53 2278.7 1811.87 2287.9 1820.54 2301.33 1820.54 2304.02 1820.54 2307.78 1820.13 2312.61 1819.33L2319.46 1818.52C2325.64 1818.52 2328.73 1820.76 2328.73 1825.25 2328.73 1835.53 2302.27 1840.67 2249.36 1840.67 2234.05 1840.67 2223.77 1837.11 2218.54 1830 2213.3 1822.88 2210.41 1808.05 2209.87 1785.5 2196.71 1804.56 2181 1818.86 2162.73 1828.39 2144.47 1837.92 2123.79 1842.68 2100.69 1842.68 2073.56 1842.68 2052.27 1835.43 2036.83 1820.93 2021.38 1806.43 2013.66 1787.36 2013.66 1763.73 2013.66 1746.01 2018.29 1729.49 2027.56 1714.19 2036.83 1698.88 2047.44 1687.87 2059.39 1681.16 2071.34 1674.44 2092.36 1665.98 2122.44 1655.78 2165.42 1641.55 2191.21 1629.73 2199.8 1620.34 2208.4 1610.94 2212.69 1598.7 2212.69 1583.62 2212.69 1559.65 2207.05 1541 2195.77 1527.67 2184.49 1514.34 2168.51 1507.67 2147.83 1507.67 2130.9 1507.67 2118.15 1511.44 2109.55 1518.99 2100.96 1526.81 2094.37 1542.04 2089.81 1564.69 2084.97 1589.49 2074.36 1601.89 2057.98 1601.89 2052.07 1601.89 2045.56 1598.94 2038.44 1593.03 2031.32 1587.13 2027.76 1578.4 2027.76 1566.86 2027.76 1546.73 2038.91 1529.21 2061.2 1514.31 2083.5 1499.42 2114.12 1491.97 2153.06 1491.97ZM3209.91 1377.21C3214.87 1377.21 3217.35 1380.95 3217.35 1388.45 3217.35 1390.85 3217.21 1393.39 3216.95 1396.07 3216.14 1406.5 3215.74 1418.54 3215.74 1432.18L3216.14 1494.78 3304.38 1493.58C3319.42 1493.58 3327.21 1495.32 3327.74 1498.81 3327.48 1511.16 3325.46 1518.94 3321.7 1522.17 3307.73 1522.17 3272.55 1524.18 3216.14 1528.21 3212.38 1587.61 3210.5 1645.95 3210.5 1703.21 3210.5 1747.3 3215.76 1776.06 3226.28 1789.5 3236.8 1802.94 3251.91 1809.66 3271.6 1809.66 3285.9 1809.66 3301.68 1804.43 3318.94 1793.96 3325.15 1790.2 3328.92 1788.32 3330.26 1788.32 3333.75 1788.32 3335.5 1790.2 3335.5 1793.96 3335.5 1800.4 3325.94 1810.6 3306.82 1824.56 3287.69 1838.52 3264.26 1845.5 3236.51 1845.5 3209.04 1845.5 3188.43 1835.96 3174.7 1816.87 3160.96 1797.79 3154.09 1769.3 3154.09 1731.4 3154.09 1691.89 3156.51 1624.16 3161.34 1528.21 3159.46 1527.67 3146.71 1526.73 3123.07 1525.39L3098.89 1523.78C3092.98 1523.51 3090.03 1521.5 3090.03 1517.76 3090.03 1514.27 3093.38 1511.46 3100.07 1509.32 3111.04 1505.3 3129.51 1493.53 3155.47 1473.99 3181.43 1454.44 3196.55 1426.87 3200.83 1391.26 3201.93 1381.89 3204.96 1377.21 3209.91 1377.21ZM2924.55 1377.21C2929.51 1377.21 2931.98 1380.95 2931.99 1388.45 2931.98 1390.85 2931.85 1393.39 2931.58 1396.07 2930.78 1406.5 2930.37 1418.54 2930.37 1432.18L2930.78 1494.78 3019.01 1493.58C3034.05 1493.58 3041.84 1495.32 3042.38 1498.81 3042.11 1511.16 3040.1 1518.94 3036.34 1522.17 3022.37 1522.17 2987.18 1524.18 2930.78 1528.21 2927.02 1587.61 2925.14 1645.95 2925.14 1703.21 2925.14 1747.3 2930.4 1776.06 2940.92 1789.5 2951.43 1802.94 2966.54 1809.66 2986.24 1809.66 3000.53 1809.66 3016.31 1804.43 3033.58 1793.96 3039.78 1790.2 3043.56 1788.32 3044.9 1788.32 3048.39 1788.32 3050.14 1790.2 3050.14 1793.96 3050.14 1800.4 3040.57 1810.6 3021.45 1824.56 3002.33 1838.52 2978.89 1845.5 2951.15 1845.5 2923.68 1845.5 2903.07 1835.96 2889.33 1816.87 2875.6 1797.79 2868.73 1769.3 2868.73 1731.4 2868.73 1691.89 2871.15 1624.16 2875.98 1528.21 2874.1 1527.67 2861.34 1526.73 2837.71 1525.39L2813.53 1523.78C2807.62 1523.51 2804.67 1521.5 2804.67 1517.76 2804.67 1514.27 2808.01 1511.46 2814.7 1509.32 2825.68 1505.3 2844.14 1493.53 2870.1 1473.99 2896.06 1454.44 2911.19 1426.87 2915.47 1391.26 2916.57 1381.89 2919.59 1377.21 2924.55 1377.21ZM637.301 1315.42C631.144 1315.42 626.153 1320.4 626.153 1326.56L626.153 1386.74C626.153 1392.89 631.144 1397.88 637.301 1397.88L1136.11 1397.88C1142.27 1397.88 1147.26 1392.89 1147.26 1386.74L1147.26 1326.56C1147.26 1320.4 1142.27 1315.42 1136.11 1315.42ZM1664.48 1297.89C1709.06 1297.89 1757.14 1310.64 1808.72 1336.14 1823.22 1343.39 1833.43 1347.01 1839.34 1347.01 1847.66 1347.01 1854.11 1343.39 1858.68 1336.14 1862.7 1329.96 1866.33 1326.88 1869.55 1326.88 1875.73 1326.88 1879.36 1334.66 1880.43 1350.23 1882.04 1374.66 1885.94 1411.97 1892.12 1462.17 1892.65 1464.85 1892.92 1467.27 1892.92 1469.42 1892.92 1475.86 1890.1 1479.08 1884.46 1479.08 1880.97 1479.08 1877.34 1474.78 1873.58 1466.18 1851.62 1417.81 1822.58 1380.48 1786.44 1354.21 1750.3 1327.93 1711.81 1314.8 1670.98 1314.8 1637.4 1314.8 1604.89 1324.93 1573.45 1345.2 1542.02 1365.46 1516.36 1396.74 1496.47 1439.02 1476.59 1481.3 1466.65 1526.33 1466.65 1574.11 1466.65 1642.29 1487.06 1701.21 1527.89 1750.88 1568.72 1800.54 1619.75 1825.37 1681 1825.37 1702.75 1825.37 1721.29 1822.01 1736.6 1815.3 1751.91 1808.59 1766.34 1798.93 1779.91 1786.31 1793.47 1773.69 1801.66 1764.3 1804.49 1758.12 1807.31 1751.95 1808.72 1735.71 1808.72 1709.4 1808.72 1665.38 1802.87 1636.39 1791.19 1622.43 1779.51 1608.47 1760.77 1601.49 1734.98 1601.49L1722.49 1601.89C1714.7 1601.89 1710.81 1599.34 1710.81 1594.24 1710.81 1588.07 1715.11 1584.98 1723.7 1584.98L1745.06 1585.79 1836.11 1584.58 1947.72 1582.16C1953.9 1582.16 1956.98 1584.98 1956.98 1590.62 1956.98 1596.25 1953.49 1599.34 1946.51 1599.88 1929.86 1601.49 1916.29 1605.11 1905.82 1610.75 1895.34 1616.39 1888.89 1622.83 1886.48 1630.08 1884.06 1637.33 1882.85 1649.54 1882.85 1666.72 1882.85 1729.53 1881.37 1764.03 1878.42 1770.2 1875.46 1776.38 1850.48 1790.47 1803.48 1812.48 1756.47 1834.49 1709.2 1845.5 1661.66 1845.5 1582.96 1845.5 1515.67 1820.27 1459.8 1769.8 1403.93 1719.33 1376 1655.45 1376 1578.14 1376 1524.98 1389.23 1476.87 1415.68 1433.78 1442.14 1390.7 1478.33 1357.28 1524.27 1333.52 1570.2 1309.76 1616.93 1297.89 1664.48 1297.89ZM343.906 1071.5 576.378 1071.5C581.021 1071.5 584.784 1075.26 584.784 1079.9L584.784 1130.69 701.185 1130.69C702.492 1130.69 703.55 1131.75 703.55 1133.06L703.55 1173.96 703.972 1174.98 703.972 1271.24 703.511 1272.35 1182.63 1272.35C1187.27 1272.35 1191.04 1276.11 1191.04 1280.75L1191.04 1430.4C1191.04 1435.04 1187.27 1438.8 1182.63 1438.8L703.55 1438.8 703.55 1473.77 827.344 1473.77C831.986 1473.77 835.75 1477.54 835.75 1482.18L835.75 1536.98 951.101 1536.98C952.407 1536.98 953.466 1538.04 953.466 1539.34L953.466 1556.35 953.466 1581.45 953.466 1675.65 1163.48 1675.65C1168.12 1675.65 1171.88 1679.41 1171.88 1684.05L1171.88 1833.69C1171.88 1838.33 1168.12 1842.09 1163.48 1842.09L842.473 1842.09C837.831 1842.09 834.068 1838.33 834.068 1833.69L834.068 1684.05C834.068 1679.41 837.831 1675.65 842.473 1675.65L912.948 1675.65 912.948 1583.82 835.75 1583.82 835.75 1631.82C835.75 1636.46 831.986 1640.22 827.344 1640.22L594.872 1640.22C590.229 1640.22 586.466 1636.46 586.466 1631.82L586.466 1482.18C586.466 1477.54 590.229 1473.77 594.872 1473.77L663.032 1473.77 663.032 1438.8 593.19 1438.8C588.547 1438.8 584.784 1435.04 584.784 1430.4L584.784 1280.75C584.784 1276.11 588.547 1272.35 593.19 1272.35L663.915 1272.35 663.453 1271.24 663.453 1177.53 584.784 1177.53 584.784 1229.55C584.784 1234.18 581.021 1237.95 576.378 1237.95L343.906 1237.95C339.263 1237.95 335.5 1234.18 335.5 1229.55L335.5 1079.9C335.5 1075.26 339.263 1071.5 343.906 1071.5Z" stroke="#00B050" stroke-width="4.58333" stroke-linecap="butt" stroke-linejoin="miter" stroke-miterlimit="8" stroke-opacity="1" fill="#00B050" fill-rule="evenodd" fill-opacity="1"/></g></svg>