<svg t="1664261494055" class="icon" viewBox="0 0 1024 1024" version="1.1" xmlns="http://www.w3.org/2000/svg" p-id="5823" width="200" height="200"><path d="M822.79146667 106.66666667L673.6128 106.66666667c-7.48906667 0-13.82613333 5.2832-16.70613333 12.19413333-2.88 6.91093333-0.57493333 15.02293333 4.60906666 20.20906667 8.63893333 9.21493333 16.12693333 19.4464 21.312 30.96746666 3.4528 6.33493333 9.792 10.22933333 16.7008 10.22933334l123.26293334 0C873.48053333 180.26666667 915.2 222.06186667 915.2 272.74986667l0 479.23306666C915.2 802.672 873.48053333 844.8 822.79146667 844.8L343.5616 844.8C292.8736 844.8 250.66666667 802.672 250.66666667 751.98293333l0-64.51093333c0-3.45706667-0.784-6.33493333-1.936-9.21706667-13.24693333-21.888-24.58453333-47.80906667-34.37653334-76.608-1.728-8.64-9.42826667-14.97493333-18.6432-14.97493333-10.368 0-18.64426667 8.64-18.64426666 18.43093333l0 146.88C177.06666667 843.56906667 251.9776 917.33333333 343.5616 917.33333333l479.22986667 0C914.37653333 917.33333333 988.8 843.56906667 988.8 751.98293333L988.8 272.74986667C988.8 181.16586667 914.37653333 106.66666667 822.79146667 106.66666667z" fill="#34495e" p-id="5824"></path><path d="M498.1888 493.6576l62 62-74.4 74.39893333c-10.0736 10.07253333-12.7872 25.18826667-7.7504 37.97226667 1.93706667 4.26453333 4.6496 8.72746667 7.74933333 11.8272 6.5888 6.58986667 15.11253333 10.27733333 24.80106667 10.27733333l297.5968 0c19.376 0 34.8736-15.70026667 34.8736-35.0752l0.00213333-297.696c-0.00213333-9.3024-3.48906667-18.2624-10.07573333-24.8512-3.1008-3.09973333-7.3632-5.83786667-11.62453333-7.776-12.7872-5.03466667-27.8976-2.33706667-37.97546667 7.7376l-74.39893333 74.39253334-61.99893334-62.00213334c-252.64746667-252.6464-404.54506667-165.84853333-508.39466666-62-77.49866667 77.49866667-103.06986667 226.29333333-104.23466667 232.88213334-0.7744 5.424 1.16373333 11.23413333 5.03893333 15.10933333 1.54986667 1.55093333 3.488 2.71466667 5.424 3.8752 7.36213333 2.71466667 16.27413333 0.7776 20.92373334-5.42293333 77.11146667-101.13493333 144.5344-149.9584 211.95946666-154.60906667C342.41493333 370.43413333 412.9408 408.41066667 498.1888 493.6576z" fill="#34495e" p-id="5825"></path></svg>