<svg data-v-2cb57da0="" version="1.0" xmlns="http://www.w3.org/2000/svg" xmlns:xlink="http://www.w3.org/1999/xlink" width="100%" height="100%" viewBox="0 0 340.000000 250.000000" preserveAspectRatio="xMidYMid meet" color-interpolation-filters="sRGB" style="margin: auto;"><rect data-v-2cb57da0="" x="0" y="0" width="100%" height="100%" fill="#ffffff" fill-opacity="0" class="background"></rect> <rect data-v-2cb57da0="" x="0" y="0" width="100%" height="100%" fill="url(#watermark)" fill-opacity="1" class="watermarklayer"></rect> <g data-v-2cb57da0="" fill="#183883" class="basesvg" transform="translate(92.72000122070312,104.98999977111816)"><g data-gra="path-name" fill-rule="" class="tp-name" opacity="1" transform="matrix(1,0,0,1,0,0)"><g transform="scale(1)"><g><path d="M18.78-16.62L18.78-23.76 38.4-23.76 38.4 0 20.52 0Q15.9 0 13.17-0.69 10.44-1.38 8.22-3.12L8.22-3.12Q1.92-7.98 1.92-19.86L1.92-19.86Q1.92-27.6 4.92-32.76L4.92-32.76Q7.14-36.54 10.98-38.28 14.82-40.02 20.94-40.02L20.94-40.02 38.4-40.02 38.4-32.88 21.9-32.88Q16.56-32.88 14.16-30.54L14.16-30.54Q11.28-27.78 11.28-20.64L11.28-20.64Q11.28-16.98 12.03-14.04 12.78-11.1 14.1-9.66L14.1-9.66Q15.24-8.34 17.25-7.74 19.26-7.14 22.2-7.14L22.2-7.14 29.94-7.14 29.94-16.62 18.78-16.62ZM55.68-17.76L65.52-17.76Q65.52-20.82 64.29-21.9 63.06-22.98 59.4-22.98L59.4-22.98 45.84-22.98 45.84-29.22 59.4-29.22Q63.06-29.22 64.44-29.07 65.82-28.92 67.26-28.5L67.26-28.5Q73.92-25.98 73.56-16.44L73.56-16.44 73.56 0 56.64 0Q52.08 0 50.34-0.27 48.6-0.54 47.28-1.38L47.28-1.38Q43.74-3.78 43.74-8.64L43.74-8.64Q43.74-11.58 45.15-13.89 46.56-16.2 48.9-17.04L48.9-17.04Q50.94-17.76 55.68-17.76L55.68-17.76ZM65.52-6.24L65.52-11.52 56.28-11.52 54.9-11.52Q53.52-11.52 52.71-10.8 51.9-10.08 51.9-8.82L51.9-8.82Q51.9-7.44 52.89-6.84 53.88-6.24 56.28-6.24L56.28-6.24 65.52-6.24ZM81.06 0L81.06-29.22 96.54-29.22Q100.02-29.22 101.85-28.71 103.68-28.2 105.18-26.88L105.18-26.88Q108.24-24.06 108.24-18L108.24-18 108.24 0 100.2 0 100.2-18.9Q100.2-21.06 99.24-22.02 98.28-22.98 96.06-22.98L96.06-22.98 89.1-22.98 89.1 0 81.06 0ZM112.8-29.22L117.9-29.22 117.9-40.02 125.94-40.02 125.94-29.22 133.38-29.22 133.38-22.98 125.94-22.98 125.94-12.36Q125.94-8.64 126.6-7.68L126.6-7.68Q127.62-6.24 130.2-6.24L130.2-6.24 133.38-6.24 133.38 0 127.56 0Q122.34 0 120.12-2.52 117.9-5.04 117.9-10.98L117.9-10.98 117.9-22.98 112.8-22.98 112.8-29.22ZM135.9-29.22L141-29.22 141-40.02 149.04-40.02 149.04-29.22 156.48-29.22 156.48-22.98 149.04-22.98 149.04-12.36Q149.04-8.64 149.7-7.68L149.7-7.68Q150.72-6.24 153.3-6.24L153.3-6.24 156.48-6.24 156.48 0 150.66 0Q145.44 0 143.22-2.52 141-5.04 141-10.98L141-10.98 141-22.98 135.9-22.98 135.9-29.22Z" transform="translate(-1.9200000762939453, 40.02000045776367)"></path></g> <!----> <!----> <!----> <!----> <!----> <!----> <!----></g></g> <!----></g><defs v-gra="od"></defs></svg>