<svg t="1665239419992" class="icon" viewBox="0 0 1024 1024" version="1.1" xmlns="http://www.w3.org/2000/svg" p-id="7259" width="200" height="200"><path d="M402.86933333 705.024c0-50.00533333 11.02933333-96.34133333 33.09866667-138.26133333C231.52 581.472 71.936 749.152 71.936 953.6h460.37333333c-80.16-55.15733333-129.44-146.35733333-129.44-248.576z m55.15733334-192.68266667h13.97333333c44.128-52.21333333 104.42666667-88.256 170.61333333-102.21866666 22.05866667-33.09866667 33.09866667-74.28266667 33.09866667-116.192 0-121.344-99.28533333-220.62933333-220.62933333-220.62933334S234.45333333 172.58666667 234.45333333 293.93066667c2.944 119.12533333 102.22933333 218.41066667 223.57333334 218.41066666zM918.4 707.968l-5.888-2.944-2.944-2.944s5.888-2.944 8.08533333-5.888c22.05866667-11.02933333 33.09866667-33.09866667 30.15466667-55.15733333-2.944-25.00266667-8.08533333-44.128-19.12533333-60.30933334-16.18133333-27.94666667-41.184-36.032-74.28266667-25.00266666-2.944 0-5.888 2.944-8.08533333 2.944v-5.888c8.08533333-22.05866667 2.944-47.072-13.97333334-66.18666667-5.888-5.888-16.18133333-16.18133333-33.09866666-22.05866667-13.97333333-5.888-27.94666667-8.08533333-38.24-8.08533333-36.032 0-50.00533333 30.15466667-55.15733334 41.184l-2.944-2.944s0-2.944-2.944-2.944c0-2.944-2.944-5.888-2.944-8.08533333-11.02933333-16.18133333-27.94666667-27.94666667-47.072-27.94666667h-7.34933333c-13.97333333 2.944-27.94666667 2.944-41.184 11.02933333-38.24 19.12533333-52.21333333 44.128-44.128 82.368v7.34933334c-2.944 0-5.888 0-8.08533333-2.944-25.00266667-8.08533333-47.072 0-63.24266667 19.12533333-8.08533333 11.02933333-16.18133333 25.00266667-19.12533333 44.128-11.02933333 38.24 0 66.18666667 36.032 82.368 0 0-2.944 2.944-5.888 2.944-22.05866667 8.08533333-33.09866667 27.94666667-36.032 52.21333333 0 30.15466667 8.08533333 58.10133333 30.15466666 77.216 13.97333333 13.97333333 30.15466667 19.12533333 52.21333334 16.18133334 2.944 0 5.888 0 8.08533333-2.944h2.944v2.944c-8.08533333 25.00266667-2.944 47.072 16.18133333 66.18666666 13.97333333 13.97333333 30.15466667 22.05866667 52.21333334 27.94666667 11.02933333 2.944 19.12533333 2.944 25.00266666 2.944 33.09866667 0 50.00533333-27.94666667 55.15733334-38.24 0-2.944 2.944-2.944 2.944-2.944l5.888 5.888c0 2.944 2.944 5.888 5.888 8.08533333 13.97333333 22.05866667 33.09866667 30.15466667 58.10133333 27.94666667 19.12533333-2.944 36.032-8.08533333 52.21333333-19.12533333 27.94666667-19.12533333 36.032-47.072 25.00266667-77.216h8.08533333c33.09866667 8.08533333 58.10133333-2.944 77.216-33.09866667 8.08533333-13.97333333 13.97333333-30.15466667 16.18133334-50.00533333 0.032-22.05866667-13.94133333-44.11733333-36.01066667-58.09066667z m-63.24266667 2.93333333c2.944 16.18133333 11.02933333 33.09866667 27.94666667 41.184 2.944 0 2.944 2.944 5.888 2.944h2.944c5.888 2.944 5.888 2.944 5.888 8.08533334 0 11.02933333-2.944 16.18133333-8.08533333 25.00266666-5.152 8.82133333-8.08533333 8.08533333-11.02933334 8.08533334h-8.08533333c-2.944 0-5.888 0-8.08533333-2.944h-2.944c-25.00266667-2.944-44.128 5.888-55.15733334 22.05866666-11.02933333 16.18133333-11.02933333 36.032-5.888 55.15733334 2.944 5.888 2.944 5.888-2.944 11.02933333-8.08533333 5.888-19.12533333 11.02933333-33.09866666 11.02933333l-2.944-2.944s0-2.944-2.944-5.888c0-2.944-2.944-2.944-2.944-2.944-13.97333333-25.00266667-36.032-30.15466667-50.00533334-30.15466666-11.02933333 0-33.09866667 2.944-50.00533333 30.15466666-5.888 8.08533333-8.08533333 11.02933333-8.08533333 11.02933334-2.944 0-5.888 0-11.02933334-2.944-11.02933333-2.944-22.05866667-8.08533333-30.15466666-16.18133334v-2.944c0-2.944 0-2.944 2.944-8.08533333 5.888-16.18133333 5.888-33.09866667-5.888-47.072-8.08533333-13.97333333-25.00266667-22.05866667-41.184-22.05866667h-8.08533334c-5.888 0-11.02933333 0-16.18133333 2.944h-8.08533333c-11.02933333-11.02933333-13.97333333-25.00266667-13.97333334-41.184 13.97333333-5.888 22.05866667-13.97333333 30.15466667-25.00266666 8.08533333-13.97333333 11.02933333-27.94666667 8.08533333-44.128s-13.97333333-30.15466667-30.15466666-38.24c-11.02933333-5.888-11.02933333-5.888-8.08533334-19.12533334 2.944-11.02933333 5.888-16.18133333 11.02933334-22.05866666l2.944-2.944h2.944c16.18133333 5.888 27.94666667 5.888 38.24 2.944 30.15466667-8.08533333 47.072-36.032 41.184-72.07466667-2.944-8.08533333 0-11.02933333 0-11.02933333s2.944-2.944 13.97333333-8.08533334c8.08533333-2.944 13.97333333-5.888 25.00266667-5.888l2.944 2.944c2.944 2.944 2.944 5.152 5.888 8.08533334 11.02933333 16.18133333 30.15466667 27.94666667 50.00533333 27.94666666s38.24-11.02933333 47.072-30.15466666c5.888-11.02933333 8.08533333-11.02933333 8.08533333-11.02933334 5.888 0 16.18133333 5.888 22.05866667 5.888 5.888 2.944 8.08533333 5.888 13.97333333 8.08533334 2.944 2.944 2.944 2.944 2.944 5.888-5.888 13.97333333-5.888 27.94666667-2.944 38.24 5.888 27.94666667 33.09866667 47.072 63.24266667 41.184 5.888 0 11.02933333-2.944 16.18133333-5.888 2.944 0 5.888 0 5.888-2.944 0 0 2.944 0 5.888 5.888 5.888 8.08533333 8.08533333 19.12533333 11.02933334 33.09866666l-5.888 13.97333334c-5.888 2.944-13.97333333 8.08533333-22.05866667 16.18133333-16.20266667 11.79733333-21.35466667 27.97866667-18.41066667 44.88533333zM705.86666667 594.70933333c-60.30933333 0-110.31466667 50.00533333-110.31466667 110.31466667s50.00533333 110.31466667 110.31466667 110.31466667 110.31466667-50.00533333 110.31466666-110.31466667-49.28-110.31466667-110.31466666-110.31466667z m0 166.208c-30.15466667 0-55.15733333-25.00266667-55.15733334-55.15733333s25.00266667-55.15733333 55.15733334-55.15733333 55.15733333 25.00266667 55.15733333 55.15733333-24.26666667 55.15733333-55.15733333 55.15733333z" fill="#707070" p-id="7260"></path></svg>