<svg width="1024" height="1024" xmlns="http://www.w3.org/2000/svg" p-id="1897" version="1.1">
 <g>
  <path d="m371.8973,240.38602c-13.10713,-0.99697 -26.21428,7.06672 -30.23145,20.17385l-73.59938,220.73948l-159.25029,0l0,60.49223l181.44739,0c13.07782,0 24.16171,-8.06368 28.2082,-20.17385l43.3386,-131.04207l69.55288,368.93519c3.02022,13.07782 14.1041,23.16475 27.21125,24.19103l3.02022,0c12.11018,0 24.19103,-8.06368 28.23753,-19.1769l108.84498,-289.26608l45.36185,155.23311c3.02022,11.08388 11.08388,19.14757 22.16778,21.1415c11.11321,2.02325 22.1971,-0.99697 29.2345,-9.06063l91.72066,-100.78129l128.02186,0l0,-60.49223l-141.09968,0c-8.093,0 -16.12735,4.0465 -22.1971,10.08692l-64.50941,70.54984l-57.4427,-188.48477c-4.0465,-13.10713 -15.13038,-21.17082 -28.23753,-22.16778c-13.10713,-1.02628 -24.19103,7.03738 -29.2345,19.14757l-102.80454,272.14176l-70.54984,-377.99584c-2.02325,-13.07782 -14.1041,-23.16475 -27.21125,-24.19103l-0.00001,0l-0.00002,-0.00001zm140.10271,-212.20664c267.21558,0 483.8206,216.60502 483.8206,483.8206s-216.60502,483.8206 -483.8206,483.8206s-483.8206,-216.60502 -483.8206,-483.8206s216.60502,-483.8206 483.8206,-483.8206z" fill="#00B050" p-id="2047" id="svg_1" stroke="null"/>
 </g>
</svg>