<svg t="1664261453640" class="icon" viewBox="0 0 1024 1024" version="1.1" xmlns="http://www.w3.org/2000/svg" p-id="5514" width="200" height="200"><path d="M820.480258 139.363048 646.024971 139.363048 646.024971 98.701976c0-19.24839-15.597233-34.849716-34.850739-34.849716L412.030659 63.85226c-19.243273 0-34.850739 15.60235-34.850739 34.849716l0 40.660048L203.97102 139.362025c-19.243273 0-34.850739 15.60235-34.850739 34.850739l0 121.144104 686.210717 0L855.330998 174.212764C855.330998 154.964374 839.732741 139.363048 820.480258 139.363048zM617.39798 139.363048 413.898193 139.363048l0-20.123316c0-13.750165 11.148921-24.892947 24.892947-24.892947l153.713894 0c13.750165 0 24.892947 11.143805 24.892947 24.892947L617.39798 139.363048z" fill="#506b84" p-id="5515"></path><path d="M213.509257 901.503085c0 32.993438 26.750247 59.743686 59.742662 59.743686l477.945393 0c32.992415 0 59.742662-26.750247 59.742662-59.743686L810.939975 341.408717 213.509257 341.408717 213.509257 901.503085zM639.179053 434.757778c0-24.056905 19.507286-43.562145 43.563168-43.562145 24.060999 0 43.562145 19.506263 43.562145 43.562145l0 441.85236c0 24.056905-19.50217 43.563168-43.562145 43.563168-24.056905 0-43.563168-19.507286-43.563168-43.563168L639.179053 434.757778zM468.662471 434.757778c0-24.056905 19.506263-43.562145 43.562145-43.562145 24.062022 0 43.562145 19.506263 43.562145 43.562145l0 441.85236c0 24.056905-19.501146 43.563168-43.562145 43.563168-24.056905 0-43.562145-19.507286-43.562145-43.563168L468.662471 434.757778zM297.523719 434.757778c0-24.056905 19.506263-43.562145 43.563168-43.562145 24.062022 0 43.562145 19.506263 43.562145 43.562145l0 441.85236c0 24.056905-19.501146 43.563168-43.562145 43.563168-24.056905 0-43.563168-19.507286-43.563168-43.563168L297.523719 434.757778z" fill="#506b84" p-id="5516"></path></svg>